# xmcd CD database file generated by Grip 3.2.0
# 
# Track frame offsets:
#       150
#       12366
#       32230
#       46526
#       65924
#       76081
#       94406
#       119069
#       140207
#       167417
#       184182
#       203942
#       221694
#       244245
#       262342
#       284529
#       304294
#       326130
# 
# Disc length: 4787 seconds
# 
# Revision: 2
# Processed by: cddbd v1.5.2PL0 Copyright (c) Steve Scherf et al.
# Submitted via: Grip 3.2.0
# 
DISCID=2012b112
DTITLE=Switchback - Bamboozled - Best (Zounds)
DYEAR=2010
DGENRE=Country
TTITLE0=The Farmer Leaves the Dell
TTITLE1=Bamboozled
TTITLE2=Stranded, Ragged and Poor
TTITLE3=The Moon
TTITLE4=I'll Take You Home Again Kathleen
TTITLE5=Apple of My Eye
TTITLE6=Bolinree
TTITLE7=The Drunken Sailor
TTITLE8=The Galway Shwal
TTITLE9=Looking at Love
TTITLE10=The Last Lullaby
TTITLE11=Falling Water River
TTITLE12=Where Were You
TTITLE13=Black Mountain
TTITLE14=The Mayfly Dance
TTITLE15=Absolutely Stunning
TTITLE16=Right Then (Live)
TTITLE17=The Has-Been That Never Was
EXTD=
EXTT0=
EXTT1=
EXTT2=
EXTT3=
EXTT4=
EXTT5=
EXTT6=
EXTT7=
EXTT8=
EXTT9=
EXTT10=
EXTT11=
EXTT12=
EXTT13=
EXTT14=
EXTT15=
EXTT16=
EXTT17=
PLAYORDER=
